<?xml version="1.0" encoding="utf-8" standalone="no"?>
<!DOCTYPE svg PUBLIC "-//W3C//DTD SVG 1.1//EN"
  "http://www.w3.org/Graphics/SVG/1.1/DTD/svg11.dtd">
<svg xmlns:xlink="http://www.w3.org/1999/xlink" width="1116pt" height="504pt" viewBox="0 0 1116 504" xmlns="http://www.w3.org/2000/svg" version="1.1">
 <metadata>
  <rdf:RDF xmlns:dc="http://purl.org/dc/elements/1.1/" xmlns:cc="http://creativecommons.org/ns#" xmlns:rdf="http://www.w3.org/1999/02/22-rdf-syntax-ns#">
   <cc:Work>
    <dc:type rdf:resource="http://purl.org/dc/dcmitype/StillImage"/>
    <dc:date>2026-05-09T13:55:59.809137</dc:date>
    <dc:format>image/svg+xml</dc:format>
    <dc:creator>
     <cc:Agent>
      <dc:title>Matplotlib v3.10.5, https://matplotlib.org/</dc:title>
     </cc:Agent>
    </dc:creator>
   </cc:Work>
  </rdf:RDF>
 </metadata>
 <defs>
  <style type="text/css">*{stroke-linejoin: round; stroke-linecap: butt}</style>
 </defs>
 <g id="figure_1">
  <g id="patch_1">
   <path d="M 0 504 
L 1116 504 
L 1116 0 
L 0 0 
z
" style="fill: #ffffff"/>
  </g>
  <g id="axes_1">
   <g id="patch_2">
    <path d="M 476.10867 233.973342 
C 469.828092 189.47173 447.67077 148.705286 413.743613 119.230095 
C 379.81645 89.754903 336.353626 73.512 291.411007 73.512 
L 291.411015 260.04 
z
" style="fill: #1f77b4"/>
   </g>
   <g id="patch_3">
    <path d="M 442.966672 368.776274 
C 456.828024 349.456444 466.868131 327.663117 472.545027 304.572736 
C 478.221922 281.482353 479.431554 257.518008 476.10867 233.973342 
L 291.411015 260.04 
z
" style="fill: #ff7f0e"/>
   </g>
   <g id="patch_4">
    <path d="M 369.172433 429.586032 
C 383.842349 422.857747 397.577168 414.253877 410.032413 403.9902 
C 422.487658 393.726522 433.558297 381.889579 442.966672 368.776274 
L 291.411015 260.04 
z
" style="fill: #2ca02c"/>
   </g>
   <g id="patch_5">
    <path d="M 284.317318 446.433062 
C 298.874384 446.987079 313.446363 445.833849 327.735074 442.996986 
C 342.023786 440.160122 355.9311 435.659104 369.172433 429.586032 
L 291.411015 260.04 
z
" style="fill: #d62728"/>
   </g>
   <g id="patch_6">
    <path d="M 216.968295 431.069165 
C 227.593801 435.694059 238.627206 439.318706 249.925352 441.896077 
C 261.223498 444.473448 272.737304 445.992358 284.317318 446.433062 
L 291.411015 260.04 
z
" style="fill: #9467bd"/>
   </g>
   <g id="patch_7">
    <path d="M 162.912077 395.246199 
C 170.791425 402.734673 179.31032 409.52006 188.371448 415.524857 
C 197.432577 421.529654 207.001306 426.730902 216.968295 431.069165 
L 291.411015 260.04 
z
" style="fill: #8c564b"/>
   </g>
   <g id="patch_8">
    <path d="M 127.099429 348.325878 
C 131.777812 357.032967 137.140915 365.354441 143.138029 373.211619 
C 149.135143 381.068797 155.747324 388.436875 162.912077 395.246199 
L 291.411015 260.04 
z
" style="fill: #e377c2"/>
   </g>
   <g id="patch_9">
    <path d="M 108.252695 295.33485 
C 110.034044 304.57894 112.512676 313.674921 115.667323 322.544793 
C 118.821971 331.414665 122.643594 340.032993 127.099429 348.325878 
L 291.411015 260.04 
z
" style="fill: #7f7f7f"/>
   </g>
   <g id="patch_10">
    <path d="M 105.556796 244.200016 
C 104.829471 252.733797 104.690786 261.307521 105.141707 269.860361 
C 105.592629 278.413201 106.632078 286.924857 108.252695 295.33485 
L 291.411015 260.04 
z
" style="fill: #bcbd22"/>
   </g>
   <g id="patch_11">
    <path d="M 116.326361 195.712266 
C 113.461892 203.508668 111.121367 211.487677 109.320428 219.596048 
C 107.519489 227.704419 106.26214 235.924053 105.556796 244.200016 
L 291.411015 260.04 
z
" style="fill: #17becf"/>
   </g>
   <g id="patch_12">
    <path d="M 129.509153 167.409116 
C 126.92152 171.93182 124.524527 176.560984 122.324498 181.284394 
C 120.12447 186.007804 118.123342 190.821303 116.326361 195.712266 
L 291.411015 260.04 
z
" style="fill: #1f77b4"/>
   </g>
   <g id="patch_13">
    <path d="M 291.410929 73.512 
C 258.547102 73.512011 226.259615 82.197309 197.830932 98.684918 
C 169.40225 115.172526 145.829526 138.884102 129.509153 167.409116 
L 291.411015 260.04 
z
" style="fill: #ff7f0e"/>
   </g>
   <g id="matplotlib.axis_1"/>
   <g id="matplotlib.axis_2"/>
   <g id="text_1">
    <!-- gate_up_prefill -->
    <g transform="translate(425.97688 106.983326) scale(0.07 -0.07)">
     <defs>
      <path id="DejaVuSans-67" d="M 2906 1791 
Q 2906 2416 2648 2759 
Q 2391 3103 1925 3103 
Q 1463 3103 1205 2759 
Q 947 2416 947 1791 
Q 947 1169 1205 825 
Q 1463 481 1925 481 
Q 2391 481 2648 825 
Q 2906 1169 2906 1791 
z
M 3481 434 
Q 3481 -459 3084 -895 
Q 2688 -1331 1869 -1331 
Q 1566 -1331 1297 -1286 
Q 1028 -1241 775 -1147 
L 775 -588 
Q 1028 -725 1275 -790 
Q 1522 -856 1778 -856 
Q 2344 -856 2625 -561 
Q 2906 -266 2906 331 
L 2906 616 
Q 2728 306 2450 153 
Q 2172 0 1784 0 
Q 1141 0 747 490 
Q 353 981 353 1791 
Q 353 2603 747 3093 
Q 1141 3584 1784 3584 
Q 2172 3584 2450 3431 
Q 2728 3278 2906 2969 
L 2906 3500 
L 3481 3500 
L 3481 434 
z
" transform="scale(0.015625)"/>
      <path id="DejaVuSans-61" d="M 2194 1759 
Q 1497 1759 1228 1600 
Q 959 1441 959 1056 
Q 959 750 1161 570 
Q 1363 391 1709 391 
Q 2188 391 2477 730 
Q 2766 1069 2766 1631 
L 2766 1759 
L 2194 1759 
z
M 3341 1997 
L 3341 0 
L 2766 0 
L 2766 531 
Q 2569 213 2275 61 
Q 1981 -91 1556 -91 
Q 1019 -91 701 211 
Q 384 513 384 1019 
Q 384 1609 779 1909 
Q 1175 2209 1959 2209 
L 2766 2209 
L 2766 2266 
Q 2766 2663 2505 2880 
Q 2244 3097 1772 3097 
Q 1472 3097 1187 3025 
Q 903 2953 641 2809 
L 641 3341 
Q 956 3463 1253 3523 
Q 1550 3584 1831 3584 
Q 2591 3584 2966 3190 
Q 3341 2797 3341 1997 
z
" transform="scale(0.015625)"/>
      <path id="DejaVuSans-74" d="M 1172 4494 
L 1172 3500 
L 2356 3500 
L 2356 3053 
L 1172 3053 
L 1172 1153 
Q 1172 725 1289 603 
Q 1406 481 1766 481 
L 2356 481 
L 2356 0 
L 1766 0 
Q 1100 0 847 248 
Q 594 497 594 1153 
L 594 3053 
L 172 3053 
L 172 3500 
L 594 3500 
L 594 4494 
L 1172 4494 
z
" transform="scale(0.015625)"/>
      <path id="DejaVuSans-65" d="M 3597 1894 
L 3597 1613 
L 953 1613 
Q 991 1019 1311 708 
Q 1631 397 2203 397 
Q 2534 397 2845 478 
Q 3156 559 3463 722 
L 3463 178 
Q 3153 47 2828 -22 
Q 2503 -91 2169 -91 
Q 1331 -91 842 396 
Q 353 884 353 1716 
Q 353 2575 817 3079 
Q 1281 3584 2069 3584 
Q 2775 3584 3186 3129 
Q 3597 2675 3597 1894 
z
M 3022 2063 
Q 3016 2534 2758 2815 
Q 2500 3097 2075 3097 
Q 1594 3097 1305 2825 
Q 1016 2553 972 2059 
L 3022 2063 
z
" transform="scale(0.015625)"/>
      <path id="DejaVuSans-5f" d="M 3263 -1063 
L 3263 -1509 
L -63 -1509 
L -63 -1063 
L 3263 -1063 
z
" transform="scale(0.015625)"/>
      <path id="DejaVuSans-75" d="M 544 1381 
L 544 3500 
L 1119 3500 
L 1119 1403 
Q 1119 906 1312 657 
Q 1506 409 1894 409 
Q 2359 409 2629 706 
Q 2900 1003 2900 1516 
L 2900 3500 
L 3475 3500 
L 3475 0 
L 2900 0 
L 2900 538 
Q 2691 219 2414 64 
Q 2138 -91 1772 -91 
Q 1169 -91 856 284 
Q 544 659 544 1381 
z
M 1991 3584 
L 1991 3584 
z
" transform="scale(0.015625)"/>
      <path id="DejaVuSans-70" d="M 1159 525 
L 1159 -1331 
L 581 -1331 
L 581 3500 
L 1159 3500 
L 1159 2969 
Q 1341 3281 1617 3432 
Q 1894 3584 2278 3584 
Q 2916 3584 3314 3078 
Q 3713 2572 3713 1747 
Q 3713 922 3314 415 
Q 2916 -91 2278 -91 
Q 1894 -91 1617 61 
Q 1341 213 1159 525 
z
M 3116 1747 
Q 3116 2381 2855 2742 
Q 2594 3103 2138 3103 
Q 1681 3103 1420 2742 
Q 1159 2381 1159 1747 
Q 1159 1113 1420 752 
Q 1681 391 2138 391 
Q 2594 391 2855 752 
Q 3116 1113 3116 1747 
z
" transform="scale(0.015625)"/>
      <path id="DejaVuSans-72" d="M 2631 2963 
Q 2534 3019 2420 3045 
Q 2306 3072 2169 3072 
Q 1681 3072 1420 2755 
Q 1159 2438 1159 1844 
L 1159 0 
L 581 0 
L 581 3500 
L 1159 3500 
L 1159 2956 
Q 1341 3275 1631 3429 
Q 1922 3584 2338 3584 
Q 2397 3584 2469 3576 
Q 2541 3569 2628 3553 
L 2631 2963 
z
" transform="scale(0.015625)"/>
      <path id="DejaVuSans-66" d="M 2375 4863 
L 2375 4384 
L 1825 4384 
Q 1516 4384 1395 4259 
Q 1275 4134 1275 3809 
L 1275 3500 
L 2222 3500 
L 2222 3053 
L 1275 3053 
L 1275 0 
L 697 0 
L 697 3053 
L 147 3053 
L 147 3500 
L 697 3500 
L 697 3744 
Q 697 4328 969 4595 
Q 1241 4863 1831 4863 
L 2375 4863 
z
" transform="scale(0.015625)"/>
      <path id="DejaVuSans-69" d="M 603 3500 
L 1178 3500 
L 1178 0 
L 603 0 
L 603 3500 
z
M 603 4863 
L 1178 4863 
L 1178 4134 
L 603 4134 
L 603 4863 
z
" transform="scale(0.015625)"/>
      <path id="DejaVuSans-6c" d="M 603 4863 
L 1178 4863 
L 1178 0 
L 603 0 
L 603 4863 
z
" transform="scale(0.015625)"/>
     </defs>
     <use xlink:href="#DejaVuSans-67"/>
     <use xlink:href="#DejaVuSans-61" transform="translate(63.476562 0)"/>
     <use xlink:href="#DejaVuSans-74" transform="translate(124.755859 0)"/>
     <use xlink:href="#DejaVuSans-65" transform="translate(163.964844 0)"/>
     <use xlink:href="#DejaVuSans-5f" transform="translate(225.488281 0)"/>
     <use xlink:href="#DejaVuSans-75" transform="translate(275.488281 0)"/>
     <use xlink:href="#DejaVuSans-70" transform="translate(338.867188 0)"/>
     <use xlink:href="#DejaVuSans-5f" transform="translate(402.34375 0)"/>
     <use xlink:href="#DejaVuSans-70" transform="translate(452.34375 0)"/>
     <use xlink:href="#DejaVuSans-72" transform="translate(515.820312 0)"/>
     <use xlink:href="#DejaVuSans-65" transform="translate(554.683594 0)"/>
     <use xlink:href="#DejaVuSans-66" transform="translate(616.207031 0)"/>
     <use xlink:href="#DejaVuSans-69" transform="translate(651.412109 0)"/>
     <use xlink:href="#DejaVuSans-6c" transform="translate(679.195312 0)"/>
     <use xlink:href="#DejaVuSans-6c" transform="translate(706.978516 0)"/>
    </g>
   </g>
   <g id="text_2">
    <!-- 22.8% -->
    <g transform="translate(368.371975 160.588433) scale(0.07 -0.07)">
     <defs>
      <path id="DejaVuSans-32" d="M 1228 531 
L 3431 531 
L 3431 0 
L 469 0 
L 469 531 
Q 828 903 1448 1529 
Q 2069 2156 2228 2338 
Q 2531 2678 2651 2914 
Q 2772 3150 2772 3378 
Q 2772 3750 2511 3984 
Q 2250 4219 1831 4219 
Q 1534 4219 1204 4116 
Q 875 4013 500 3803 
L 500 4441 
Q 881 4594 1212 4672 
Q 1544 4750 1819 4750 
Q 2544 4750 2975 4387 
Q 3406 4025 3406 3419 
Q 3406 3131 3298 2873 
Q 3191 2616 2906 2266 
Q 2828 2175 2409 1742 
Q 1991 1309 1228 531 
z
" transform="scale(0.015625)"/>
      <path id="DejaVuSans-2e" d="M 684 794 
L 1344 794 
L 1344 0 
L 684 0 
L 684 794 
z
" transform="scale(0.015625)"/>
      <path id="DejaVuSans-38" d="M 2034 2216 
Q 1584 2216 1326 1975 
Q 1069 1734 1069 1313 
Q 1069 891 1326 650 
Q 1584 409 2034 409 
Q 2484 409 2743 651 
Q 3003 894 3003 1313 
Q 3003 1734 2745 1975 
Q 2488 2216 2034 2216 
z
M 1403 2484 
Q 997 2584 770 2862 
Q 544 3141 544 3541 
Q 544 4100 942 4425 
Q 1341 4750 2034 4750 
Q 2731 4750 3128 4425 
Q 3525 4100 3525 3541 
Q 3525 3141 3298 2862 
Q 3072 2584 2669 2484 
Q 3125 2378 3379 2068 
Q 3634 1759 3634 1313 
Q 3634 634 3220 271 
Q 2806 -91 2034 -91 
Q 1263 -91 848 271 
Q 434 634 434 1313 
Q 434 1759 690 2068 
Q 947 2378 1403 2484 
z
M 1172 3481 
Q 1172 3119 1398 2916 
Q 1625 2713 2034 2713 
Q 2441 2713 2670 2916 
Q 2900 3119 2900 3481 
Q 2900 3844 2670 4047 
Q 2441 4250 2034 4250 
Q 1625 4250 1398 4047 
Q 1172 3844 1172 3481 
z
" transform="scale(0.015625)"/>
      <path id="DejaVuSans-25" d="M 4653 2053 
Q 4381 2053 4226 1822 
Q 4072 1591 4072 1178 
Q 4072 772 4226 539 
Q 4381 306 4653 306 
Q 4919 306 5073 539 
Q 5228 772 5228 1178 
Q 5228 1588 5073 1820 
Q 4919 2053 4653 2053 
z
M 4653 2450 
Q 5147 2450 5437 2106 
Q 5728 1763 5728 1178 
Q 5728 594 5436 251 
Q 5144 -91 4653 -91 
Q 4153 -91 3862 251 
Q 3572 594 3572 1178 
Q 3572 1766 3864 2108 
Q 4156 2450 4653 2450 
z
M 1428 4353 
Q 1159 4353 1004 4120 
Q 850 3888 850 3481 
Q 850 3069 1003 2837 
Q 1156 2606 1428 2606 
Q 1700 2606 1854 2837 
Q 2009 3069 2009 3481 
Q 2009 3884 1853 4118 
Q 1697 4353 1428 4353 
z
M 4250 4750 
L 4750 4750 
L 1831 -91 
L 1331 -91 
L 4250 4750 
z
M 1428 4750 
Q 1922 4750 2215 4408 
Q 2509 4066 2509 3481 
Q 2509 2891 2217 2550 
Q 1925 2209 1428 2209 
Q 931 2209 642 2551 
Q 353 2894 353 3481 
Q 353 4063 643 4406 
Q 934 4750 1428 4750 
z
" transform="scale(0.015625)"/>
     </defs>
     <use xlink:href="#DejaVuSans-32"/>
     <use xlink:href="#DejaVuSans-32" transform="translate(63.623047 0)"/>
     <use xlink:href="#DejaVuSans-2e" transform="translate(127.246094 0)"/>
     <use xlink:href="#DejaVuSans-38" transform="translate(159.033203 0)"/>
     <use xlink:href="#DejaVuSans-25" transform="translate(222.65625 0)"/>
    </g>
   </g>
   <g id="text_3">
    <!-- down_prefill -->
    <g transform="translate(490.658428 310.860229) scale(0.07 -0.07)">
     <defs>
      <path id="DejaVuSans-64" d="M 2906 2969 
L 2906 4863 
L 3481 4863 
L 3481 0 
L 2906 0 
L 2906 525 
Q 2725 213 2448 61 
Q 2172 -91 1784 -91 
Q 1150 -91 751 415 
Q 353 922 353 1747 
Q 353 2572 751 3078 
Q 1150 3584 1784 3584 
Q 2172 3584 2448 3432 
Q 2725 3281 2906 2969 
z
M 947 1747 
Q 947 1113 1208 752 
Q 1469 391 1925 391 
Q 2381 391 2643 752 
Q 2906 1113 2906 1747 
Q 2906 2381 2643 2742 
Q 2381 3103 1925 3103 
Q 1469 3103 1208 2742 
Q 947 2381 947 1747 
z
" transform="scale(0.015625)"/>
      <path id="DejaVuSans-6f" d="M 1959 3097 
Q 1497 3097 1228 2736 
Q 959 2375 959 1747 
Q 959 1119 1226 758 
Q 1494 397 1959 397 
Q 2419 397 2687 759 
Q 2956 1122 2956 1747 
Q 2956 2369 2687 2733 
Q 2419 3097 1959 3097 
z
M 1959 3584 
Q 2709 3584 3137 3096 
Q 3566 2609 3566 1747 
Q 3566 888 3137 398 
Q 2709 -91 1959 -91 
Q 1206 -91 779 398 
Q 353 888 353 1747 
Q 353 2609 779 3096 
Q 1206 3584 1959 3584 
z
" transform="scale(0.015625)"/>
      <path id="DejaVuSans-77" d="M 269 3500 
L 844 3500 
L 1563 769 
L 2278 3500 
L 2956 3500 
L 3675 769 
L 4391 3500 
L 4966 3500 
L 4050 0 
L 3372 0 
L 2619 2869 
L 1863 0 
L 1184 0 
L 269 3500 
z
" transform="scale(0.015625)"/>
      <path id="DejaVuSans-6e" d="M 3513 2113 
L 3513 0 
L 2938 0 
L 2938 2094 
Q 2938 2591 2744 2837 
Q 2550 3084 2163 3084 
Q 1697 3084 1428 2787 
Q 1159 2491 1159 1978 
L 1159 0 
L 581 0 
L 581 3500 
L 1159 3500 
L 1159 2956 
Q 1366 3272 1645 3428 
Q 1925 3584 2291 3584 
Q 2894 3584 3203 3211 
Q 3513 2838 3513 2113 
z
" transform="scale(0.015625)"/>
     </defs>
     <use xlink:href="#DejaVuSans-64"/>
     <use xlink:href="#DejaVuSans-6f" transform="translate(63.476562 0)"/>
     <use xlink:href="#DejaVuSans-77" transform="translate(124.658203 0)"/>
     <use xlink:href="#DejaVuSans-6e" transform="translate(206.445312 0)"/>
     <use xlink:href="#DejaVuSans-5f" transform="translate(269.824219 0)"/>
     <use xlink:href="#DejaVuSans-70" transform="translate(319.824219 0)"/>
     <use xlink:href="#DejaVuSans-72" transform="translate(383.300781 0)"/>
     <use xlink:href="#DejaVuSans-65" transform="translate(422.164062 0)"/>
     <use xlink:href="#DejaVuSans-66" transform="translate(483.6875 0)"/>
     <use xlink:href="#DejaVuSans-69" transform="translate(518.892578 0)"/>
     <use xlink:href="#DejaVuSans-6c" transform="translate(546.675781 0)"/>
     <use xlink:href="#DejaVuSans-6c" transform="translate(574.458984 0)"/>
    </g>
   </g>
   <g id="text_4">
    <!-- 12.1% -->
    <g transform="translate(410.708988 294.035133) scale(0.07 -0.07)">
     <defs>
      <path id="DejaVuSans-31" d="M 794 531 
L 1825 531 
L 1825 4091 
L 703 3866 
L 703 4441 
L 1819 4666 
L 2450 4666 
L 2450 531 
L 3481 531 
L 3481 0 
L 794 0 
L 794 531 
z
" transform="scale(0.015625)"/>
     </defs>
     <use xlink:href="#DejaVuSans-31"/>
     <use xlink:href="#DejaVuSans-32" transform="translate(63.623047 0)"/>
     <use xlink:href="#DejaVuSans-2e" transform="translate(127.246094 0)"/>
     <use xlink:href="#DejaVuSans-31" transform="translate(159.033203 0)"/>
     <use xlink:href="#DejaVuSans-25" transform="translate(222.65625 0)"/>
    </g>
   </g>
   <g id="text_5">
    <!-- linear_prefill -->
    <g transform="translate(421.89455 416.202858) scale(0.07 -0.07)">
     <use xlink:href="#DejaVuSans-6c"/>
     <use xlink:href="#DejaVuSans-69" transform="translate(27.783203 0)"/>
     <use xlink:href="#DejaVuSans-6e" transform="translate(55.566406 0)"/>
     <use xlink:href="#DejaVuSans-65" transform="translate(118.945312 0)"/>
     <use xlink:href="#DejaVuSans-61" transform="translate(180.46875 0)"/>
     <use xlink:href="#DejaVuSans-72" transform="translate(241.748047 0)"/>
     <use xlink:href="#DejaVuSans-5f" transform="translate(282.861328 0)"/>
     <use xlink:href="#DejaVuSans-70" transform="translate(332.861328 0)"/>
     <use xlink:href="#DejaVuSans-72" transform="translate(396.337891 0)"/>
     <use xlink:href="#DejaVuSans-65" transform="translate(435.201172 0)"/>
     <use xlink:href="#DejaVuSans-66" transform="translate(496.724609 0)"/>
     <use xlink:href="#DejaVuSans-69" transform="translate(531.929688 0)"/>
     <use xlink:href="#DejaVuSans-6c" transform="translate(559.712891 0)"/>
     <use xlink:href="#DejaVuSans-6c" transform="translate(587.496094 0)"/>
    </g>
    <!-- flashinfer_gdn -->
    <g transform="translate(421.89455 424.236014) scale(0.07 -0.07)">
     <defs>
      <path id="DejaVuSans-73" d="M 2834 3397 
L 2834 2853 
Q 2591 2978 2328 3040 
Q 2066 3103 1784 3103 
Q 1356 3103 1142 2972 
Q 928 2841 928 2578 
Q 928 2378 1081 2264 
Q 1234 2150 1697 2047 
L 1894 2003 
Q 2506 1872 2764 1633 
Q 3022 1394 3022 966 
Q 3022 478 2636 193 
Q 2250 -91 1575 -91 
Q 1294 -91 989 -36 
Q 684 19 347 128 
L 347 722 
Q 666 556 975 473 
Q 1284 391 1588 391 
Q 1994 391 2212 530 
Q 2431 669 2431 922 
Q 2431 1156 2273 1281 
Q 2116 1406 1581 1522 
L 1381 1569 
Q 847 1681 609 1914 
Q 372 2147 372 2553 
Q 372 3047 722 3315 
Q 1072 3584 1716 3584 
Q 2034 3584 2315 3537 
Q 2597 3491 2834 3397 
z
" transform="scale(0.015625)"/>
      <path id="DejaVuSans-68" d="M 3513 2113 
L 3513 0 
L 2938 0 
L 2938 2094 
Q 2938 2591 2744 2837 
Q 2550 3084 2163 3084 
Q 1697 3084 1428 2787 
Q 1159 2491 1159 1978 
L 1159 0 
L 581 0 
L 581 4863 
L 1159 4863 
L 1159 2956 
Q 1366 3272 1645 3428 
Q 1925 3584 2291 3584 
Q 2894 3584 3203 3211 
Q 3513 2838 3513 2113 
z
" transform="scale(0.015625)"/>
     </defs>
     <use xlink:href="#DejaVuSans-66"/>
     <use xlink:href="#DejaVuSans-6c" transform="translate(35.205078 0)"/>
     <use xlink:href="#DejaVuSans-61" transform="translate(62.988281 0)"/>
     <use xlink:href="#DejaVuSans-73" transform="translate(124.267578 0)"/>
     <use xlink:href="#DejaVuSans-68" transform="translate(176.367188 0)"/>
     <use xlink:href="#DejaVuSans-69" transform="translate(239.746094 0)"/>
     <use xlink:href="#DejaVuSans-6e" transform="translate(267.529297 0)"/>
     <use xlink:href="#DejaVuSans-66" transform="translate(330.908203 0)"/>
     <use xlink:href="#DejaVuSans-65" transform="translate(366.113281 0)"/>
     <use xlink:href="#DejaVuSans-72" transform="translate(427.636719 0)"/>
     <use xlink:href="#DejaVuSans-5f" transform="translate(468.75 0)"/>
     <use xlink:href="#DejaVuSans-67" transform="translate(518.75 0)"/>
     <use xlink:href="#DejaVuSans-64" transform="translate(582.226562 0)"/>
     <use xlink:href="#DejaVuSans-6e" transform="translate(645.703125 0)"/>
    </g>
   </g>
   <g id="text_6">
    <!-- 8.3% -->
    <g transform="translate(367.926779 365.615705) scale(0.07 -0.07)">
     <defs>
      <path id="DejaVuSans-33" d="M 2597 2516 
Q 3050 2419 3304 2112 
Q 3559 1806 3559 1356 
Q 3559 666 3084 287 
Q 2609 -91 1734 -91 
Q 1441 -91 1130 -33 
Q 819 25 488 141 
L 488 750 
Q 750 597 1062 519 
Q 1375 441 1716 441 
Q 2309 441 2620 675 
Q 2931 909 2931 1356 
Q 2931 1769 2642 2001 
Q 2353 2234 1838 2234 
L 1294 2234 
L 1294 2753 
L 1863 2753 
Q 2328 2753 2575 2939 
Q 2822 3125 2822 3475 
Q 2822 3834 2567 4026 
Q 2313 4219 1838 4219 
Q 1578 4219 1281 4162 
Q 984 4106 628 3988 
L 628 4550 
Q 988 4650 1302 4700 
Q 1616 4750 1894 4750 
Q 2613 4750 3031 4423 
Q 3450 4097 3450 3541 
Q 3450 3153 3228 2886 
Q 3006 2619 2597 2516 
z
" transform="scale(0.015625)"/>
     </defs>
     <use xlink:href="#DejaVuSans-38"/>
     <use xlink:href="#DejaVuSans-2e" transform="translate(63.623047 0)"/>
     <use xlink:href="#DejaVuSans-33" transform="translate(95.410156 0)"/>
     <use xlink:href="#DejaVuSans-25" transform="translate(159.033203 0)"/>
    </g>
   </g>
   <g id="text_7">
    <!-- expand_prefill -->
    <g transform="translate(331.36748 463.1269) scale(0.07 -0.07)">
     <defs>
      <path id="DejaVuSans-78" d="M 3513 3500 
L 2247 1797 
L 3578 0 
L 2900 0 
L 1881 1375 
L 863 0 
L 184 0 
L 1544 1831 
L 300 3500 
L 978 3500 
L 1906 2253 
L 2834 3500 
L 3513 3500 
z
" transform="scale(0.015625)"/>
     </defs>
     <use xlink:href="#DejaVuSans-65"/>
     <use xlink:href="#DejaVuSans-78" transform="translate(59.773438 0)"/>
     <use xlink:href="#DejaVuSans-70" transform="translate(118.953125 0)"/>
     <use xlink:href="#DejaVuSans-61" transform="translate(182.429688 0)"/>
     <use xlink:href="#DejaVuSans-6e" transform="translate(243.708984 0)"/>
     <use xlink:href="#DejaVuSans-64" transform="translate(307.087891 0)"/>
     <use xlink:href="#DejaVuSans-5f" transform="translate(370.564453 0)"/>
     <use xlink:href="#DejaVuSans-70" transform="translate(420.564453 0)"/>
     <use xlink:href="#DejaVuSans-72" transform="translate(484.041016 0)"/>
     <use xlink:href="#DejaVuSans-65" transform="translate(522.904297 0)"/>
     <use xlink:href="#DejaVuSans-66" transform="translate(584.427734 0)"/>
     <use xlink:href="#DejaVuSans-69" transform="translate(619.632812 0)"/>
     <use xlink:href="#DejaVuSans-6c" transform="translate(647.416016 0)"/>
     <use xlink:href="#DejaVuSans-6c" transform="translate(675.199219 0)"/>
    </g>
   </g>
   <g id="text_8">
    <!-- 7.4% -->
    <g transform="translate(308.672697 393.70059) scale(0.07 -0.07)">
     <defs>
      <path id="DejaVuSans-37" d="M 525 4666 
L 3525 4666 
L 3525 4397 
L 1831 0 
L 1172 0 
L 2766 4134 
L 525 4134 
L 525 4666 
z
" transform="scale(0.015625)"/>
      <path id="DejaVuSans-34" d="M 2419 4116 
L 825 1625 
L 2419 1625 
L 2419 4116 
z
M 2253 4666 
L 3047 4666 
L 3047 1625 
L 3713 1625 
L 3713 1100 
L 3047 1100 
L 3047 0 
L 2419 0 
L 2419 1100 
L 313 1100 
L 313 1709 
L 2253 4666 
z
" transform="scale(0.015625)"/>
     </defs>
     <use xlink:href="#DejaVuSans-37"/>
     <use xlink:href="#DejaVuSans-2e" transform="translate(63.623047 0)"/>
     <use xlink:href="#DejaVuSans-34" transform="translate(95.410156 0)"/>
     <use xlink:href="#DejaVuSans-25" transform="translate(159.033203 0)"/>
    </g>
   </g>
   <g id="text_9">
    <!-- prefill_lin_in_proj_qkv -->
    <g transform="translate(171.268349 461.915909) scale(0.07 -0.07)">
     <defs>
      <path id="DejaVuSans-6a" d="M 603 3500 
L 1178 3500 
L 1178 -63 
Q 1178 -731 923 -1031 
Q 669 -1331 103 -1331 
L -116 -1331 
L -116 -844 
L 38 -844 
Q 366 -844 484 -692 
Q 603 -541 603 -63 
L 603 3500 
z
M 603 4863 
L 1178 4863 
L 1178 4134 
L 603 4134 
L 603 4863 
z
" transform="scale(0.015625)"/>
      <path id="DejaVuSans-71" d="M 947 1747 
Q 947 1113 1208 752 
Q 1469 391 1925 391 
Q 2381 391 2643 752 
Q 2906 1113 2906 1747 
Q 2906 2381 2643 2742 
Q 2381 3103 1925 3103 
Q 1469 3103 1208 2742 
Q 947 2381 947 1747 
z
M 2906 525 
Q 2725 213 2448 61 
Q 2172 -91 1784 -91 
Q 1150 -91 751 415 
Q 353 922 353 1747 
Q 353 2572 751 3078 
Q 1150 3584 1784 3584 
Q 2172 3584 2448 3432 
Q 2725 3281 2906 2969 
L 2906 3500 
L 3481 3500 
L 3481 -1331 
L 2906 -1331 
L 2906 525 
z
" transform="scale(0.015625)"/>
      <path id="DejaVuSans-6b" d="M 581 4863 
L 1159 4863 
L 1159 1991 
L 2875 3500 
L 3609 3500 
L 1753 1863 
L 3688 0 
L 2938 0 
L 1159 1709 
L 1159 0 
L 581 0 
L 581 4863 
z
" transform="scale(0.015625)"/>
      <path id="DejaVuSans-76" d="M 191 3500 
L 800 3500 
L 1894 563 
L 2988 3500 
L 3597 3500 
L 2284 0 
L 1503 0 
L 191 3500 
z
" transform="scale(0.015625)"/>
     </defs>
     <use xlink:href="#DejaVuSans-70"/>
     <use xlink:href="#DejaVuSans-72" transform="translate(63.476562 0)"/>
     <use xlink:href="#DejaVuSans-65" transform="translate(102.339844 0)"/>
     <use xlink:href="#DejaVuSans-66" transform="translate(163.863281 0)"/>
     <use xlink:href="#DejaVuSans-69" transform="translate(199.068359 0)"/>
     <use xlink:href="#DejaVuSans-6c" transform="translate(226.851562 0)"/>
     <use xlink:href="#DejaVuSans-6c" transform="translate(254.634766 0)"/>
     <use xlink:href="#DejaVuSans-5f" transform="translate(282.417969 0)"/>
     <use xlink:href="#DejaVuSans-6c" transform="translate(332.417969 0)"/>
     <use xlink:href="#DejaVuSans-69" transform="translate(360.201172 0)"/>
     <use xlink:href="#DejaVuSans-6e" transform="translate(387.984375 0)"/>
     <use xlink:href="#DejaVuSans-5f" transform="translate(451.363281 0)"/>
     <use xlink:href="#DejaVuSans-69" transform="translate(501.363281 0)"/>
     <use xlink:href="#DejaVuSans-6e" transform="translate(529.146484 0)"/>
     <use xlink:href="#DejaVuSans-5f" transform="translate(592.525391 0)"/>
     <use xlink:href="#DejaVuSans-70" transform="translate(642.525391 0)"/>
     <use xlink:href="#DejaVuSans-72" transform="translate(706.001953 0)"/>
     <use xlink:href="#DejaVuSans-6f" transform="translate(744.865234 0)"/>
     <use xlink:href="#DejaVuSans-6a" transform="translate(806.046875 0)"/>
     <use xlink:href="#DejaVuSans-5f" transform="translate(833.830078 0)"/>
     <use xlink:href="#DejaVuSans-71" transform="translate(883.830078 0)"/>
     <use xlink:href="#DejaVuSans-6b" transform="translate(947.306641 0)"/>
     <use xlink:href="#DejaVuSans-76" transform="translate(1005.216797 0)"/>
    </g>
   </g>
   <g id="text_10">
    <!-- 5.9% -->
    <g transform="translate(252.649697 392.907942) scale(0.07 -0.07)">
     <defs>
      <path id="DejaVuSans-35" d="M 691 4666 
L 3169 4666 
L 3169 4134 
L 1269 4134 
L 1269 2991 
Q 1406 3038 1543 3061 
Q 1681 3084 1819 3084 
Q 2600 3084 3056 2656 
Q 3513 2228 3513 1497 
Q 3513 744 3044 326 
Q 2575 -91 1722 -91 
Q 1428 -91 1123 -41 
Q 819 9 494 109 
L 494 744 
Q 775 591 1075 516 
Q 1375 441 1709 441 
Q 2250 441 2565 725 
Q 2881 1009 2881 1497 
Q 2881 1984 2565 2268 
Q 2250 2553 1709 2553 
Q 1456 2553 1204 2497 
Q 953 2441 691 2322 
L 691 4666 
z
" transform="scale(0.015625)"/>
      <path id="DejaVuSans-39" d="M 703 97 
L 703 672 
Q 941 559 1184 500 
Q 1428 441 1663 441 
Q 2288 441 2617 861 
Q 2947 1281 2994 2138 
Q 2813 1869 2534 1725 
Q 2256 1581 1919 1581 
Q 1219 1581 811 2004 
Q 403 2428 403 3163 
Q 403 3881 828 4315 
Q 1253 4750 1959 4750 
Q 2769 4750 3195 4129 
Q 3622 3509 3622 2328 
Q 3622 1225 3098 567 
Q 2575 -91 1691 -91 
Q 1453 -91 1209 -44 
Q 966 3 703 97 
z
M 1959 2075 
Q 2384 2075 2632 2365 
Q 2881 2656 2881 3163 
Q 2881 3666 2632 3958 
Q 2384 4250 1959 4250 
Q 1534 4250 1286 3958 
Q 1038 3666 1038 3163 
Q 1038 2656 1286 2365 
Q 1534 2075 1959 2075 
z
" transform="scale(0.015625)"/>
     </defs>
     <use xlink:href="#DejaVuSans-35"/>
     <use xlink:href="#DejaVuSans-2e" transform="translate(63.623047 0)"/>
     <use xlink:href="#DejaVuSans-39" transform="translate(95.410156 0)"/>
     <use xlink:href="#DejaVuSans-25" transform="translate(159.033203 0)"/>
    </g>
   </g>
   <g id="text_11">
    <!-- lin_prefill_fused_rms -->
    <g transform="translate(106.954012 428.890962) scale(0.07 -0.07)">
     <defs>
      <path id="DejaVuSans-6d" d="M 3328 2828 
Q 3544 3216 3844 3400 
Q 4144 3584 4550 3584 
Q 5097 3584 5394 3201 
Q 5691 2819 5691 2113 
L 5691 0 
L 5113 0 
L 5113 2094 
Q 5113 2597 4934 2840 
Q 4756 3084 4391 3084 
Q 3944 3084 3684 2787 
Q 3425 2491 3425 1978 
L 3425 0 
L 2847 0 
L 2847 2094 
Q 2847 2600 2669 2842 
Q 2491 3084 2119 3084 
Q 1678 3084 1418 2786 
Q 1159 2488 1159 1978 
L 1159 0 
L 581 0 
L 581 3500 
L 1159 3500 
L 1159 2956 
Q 1356 3278 1631 3431 
Q 1906 3584 2284 3584 
Q 2666 3584 2933 3390 
Q 3200 3197 3328 2828 
z
" transform="scale(0.015625)"/>
     </defs>
     <use xlink:href="#DejaVuSans-6c"/>
     <use xlink:href="#DejaVuSans-69" transform="translate(27.783203 0)"/>
     <use xlink:href="#DejaVuSans-6e" transform="translate(55.566406 0)"/>
     <use xlink:href="#DejaVuSans-5f" transform="translate(118.945312 0)"/>
     <use xlink:href="#DejaVuSans-70" transform="translate(168.945312 0)"/>
     <use xlink:href="#DejaVuSans-72" transform="translate(232.421875 0)"/>
     <use xlink:href="#DejaVuSans-65" transform="translate(271.285156 0)"/>
     <use xlink:href="#DejaVuSans-66" transform="translate(332.808594 0)"/>
     <use xlink:href="#DejaVuSans-69" transform="translate(368.013672 0)"/>
     <use xlink:href="#DejaVuSans-6c" transform="translate(395.796875 0)"/>
     <use xlink:href="#DejaVuSans-6c" transform="translate(423.580078 0)"/>
     <use xlink:href="#DejaVuSans-5f" transform="translate(451.363281 0)"/>
     <use xlink:href="#DejaVuSans-66" transform="translate(501.363281 0)"/>
     <use xlink:href="#DejaVuSans-75" transform="translate(536.568359 0)"/>
     <use xlink:href="#DejaVuSans-73" transform="translate(599.947266 0)"/>
     <use xlink:href="#DejaVuSans-65" transform="translate(652.046875 0)"/>
     <use xlink:href="#DejaVuSans-64" transform="translate(713.570312 0)"/>
     <use xlink:href="#DejaVuSans-5f" transform="translate(777.046875 0)"/>
     <use xlink:href="#DejaVuSans-72" transform="translate(827.046875 0)"/>
     <use xlink:href="#DejaVuSans-6d" transform="translate(866.410156 0)"/>
     <use xlink:href="#DejaVuSans-73" transform="translate(963.822266 0)"/>
    </g>
    <!-- norm_gate -->
    <g transform="translate(140.489481 436.924118) scale(0.07 -0.07)">
     <use xlink:href="#DejaVuSans-6e"/>
     <use xlink:href="#DejaVuSans-6f" transform="translate(63.378906 0)"/>
     <use xlink:href="#DejaVuSans-72" transform="translate(124.560547 0)"/>
     <use xlink:href="#DejaVuSans-6d" transform="translate(163.923828 0)"/>
     <use xlink:href="#DejaVuSans-5f" transform="translate(261.335938 0)"/>
     <use xlink:href="#DejaVuSans-67" transform="translate(311.335938 0)"/>
     <use xlink:href="#DejaVuSans-61" transform="translate(374.8125 0)"/>
     <use xlink:href="#DejaVuSans-74" transform="translate(436.091797 0)"/>
     <use xlink:href="#DejaVuSans-65" transform="translate(475.300781 0)"/>
    </g>
   </g>
   <g id="text_12">
    <!-- 5.6% -->
    <g transform="translate(208.330859 373.920645) scale(0.07 -0.07)">
     <defs>
      <path id="DejaVuSans-36" d="M 2113 2584 
Q 1688 2584 1439 2293 
Q 1191 2003 1191 1497 
Q 1191 994 1439 701 
Q 1688 409 2113 409 
Q 2538 409 2786 701 
Q 3034 994 3034 1497 
Q 3034 2003 2786 2293 
Q 2538 2584 2113 2584 
z
M 3366 4563 
L 3366 3988 
Q 3128 4100 2886 4159 
Q 2644 4219 2406 4219 
Q 1781 4219 1451 3797 
Q 1122 3375 1075 2522 
Q 1259 2794 1537 2939 
Q 1816 3084 2150 3084 
Q 2853 3084 3261 2657 
Q 3669 2231 3669 1497 
Q 3669 778 3244 343 
Q 2819 -91 2113 -91 
Q 1303 -91 875 529 
Q 447 1150 447 2328 
Q 447 3434 972 4092 
Q 1497 4750 2381 4750 
Q 2619 4750 2861 4703 
Q 3103 4656 3366 4563 
z
" transform="scale(0.015625)"/>
     </defs>
     <use xlink:href="#DejaVuSans-35"/>
     <use xlink:href="#DejaVuSans-2e" transform="translate(63.623047 0)"/>
     <use xlink:href="#DejaVuSans-36" transform="translate(95.410156 0)"/>
     <use xlink:href="#DejaVuSans-25" transform="translate(159.033203 0)"/>
    </g>
   </g>
   <g id="text_13">
    <!-- finalize_prefill -->
    <g transform="translate(80.03588 386.362995) scale(0.07 -0.07)">
     <defs>
      <path id="DejaVuSans-7a" d="M 353 3500 
L 3084 3500 
L 3084 2975 
L 922 459 
L 3084 459 
L 3084 0 
L 275 0 
L 275 525 
L 2438 3041 
L 353 3041 
L 353 3500 
z
" transform="scale(0.015625)"/>
     </defs>
     <use xlink:href="#DejaVuSans-66"/>
     <use xlink:href="#DejaVuSans-69" transform="translate(35.205078 0)"/>
     <use xlink:href="#DejaVuSans-6e" transform="translate(62.988281 0)"/>
     <use xlink:href="#DejaVuSans-61" transform="translate(126.367188 0)"/>
     <use xlink:href="#DejaVuSans-6c" transform="translate(187.646484 0)"/>
     <use xlink:href="#DejaVuSans-69" transform="translate(215.429688 0)"/>
     <use xlink:href="#DejaVuSans-7a" transform="translate(243.212891 0)"/>
     <use xlink:href="#DejaVuSans-65" transform="translate(295.703125 0)"/>
     <use xlink:href="#DejaVuSans-5f" transform="translate(357.226562 0)"/>
     <use xlink:href="#DejaVuSans-70" transform="translate(407.226562 0)"/>
     <use xlink:href="#DejaVuSans-72" transform="translate(470.703125 0)"/>
     <use xlink:href="#DejaVuSans-65" transform="translate(509.566406 0)"/>
     <use xlink:href="#DejaVuSans-66" transform="translate(571.089844 0)"/>
     <use xlink:href="#DejaVuSans-69" transform="translate(606.294922 0)"/>
     <use xlink:href="#DejaVuSans-6c" transform="translate(634.078125 0)"/>
     <use xlink:href="#DejaVuSans-6c" transform="translate(661.861328 0)"/>
    </g>
   </g>
   <g id="text_14">
    <!-- 5.1% -->
    <g transform="translate(175.76282 343.455125) scale(0.07 -0.07)">
     <use xlink:href="#DejaVuSans-35"/>
     <use xlink:href="#DejaVuSans-2e" transform="translate(63.623047 0)"/>
     <use xlink:href="#DejaVuSans-31" transform="translate(95.410156 0)"/>
     <use xlink:href="#DejaVuSans-25" transform="translate(159.033203 0)"/>
    </g>
   </g>
   <g id="text_15">
    <!-- flash_prefill_full_attn -->
    <g transform="translate(26.037796 330.629489) scale(0.07 -0.07)">
     <use xlink:href="#DejaVuSans-66"/>
     <use xlink:href="#DejaVuSans-6c" transform="translate(35.205078 0)"/>
     <use xlink:href="#DejaVuSans-61" transform="translate(62.988281 0)"/>
     <use xlink:href="#DejaVuSans-73" transform="translate(124.267578 0)"/>
     <use xlink:href="#DejaVuSans-68" transform="translate(176.367188 0)"/>
     <use xlink:href="#DejaVuSans-5f" transform="translate(239.746094 0)"/>
     <use xlink:href="#DejaVuSans-70" transform="translate(289.746094 0)"/>
     <use xlink:href="#DejaVuSans-72" transform="translate(353.222656 0)"/>
     <use xlink:href="#DejaVuSans-65" transform="translate(392.085938 0)"/>
     <use xlink:href="#DejaVuSans-66" transform="translate(453.609375 0)"/>
     <use xlink:href="#DejaVuSans-69" transform="translate(488.814453 0)"/>
     <use xlink:href="#DejaVuSans-6c" transform="translate(516.597656 0)"/>
     <use xlink:href="#DejaVuSans-6c" transform="translate(544.380859 0)"/>
     <use xlink:href="#DejaVuSans-5f" transform="translate(572.164062 0)"/>
     <use xlink:href="#DejaVuSans-66" transform="translate(622.164062 0)"/>
     <use xlink:href="#DejaVuSans-75" transform="translate(657.369141 0)"/>
     <use xlink:href="#DejaVuSans-6c" transform="translate(720.748047 0)"/>
     <use xlink:href="#DejaVuSans-6c" transform="translate(748.53125 0)"/>
     <use xlink:href="#DejaVuSans-5f" transform="translate(776.314453 0)"/>
     <use xlink:href="#DejaVuSans-61" transform="translate(826.314453 0)"/>
     <use xlink:href="#DejaVuSans-74" transform="translate(887.59375 0)"/>
     <use xlink:href="#DejaVuSans-74" transform="translate(926.802734 0)"/>
     <use xlink:href="#DejaVuSans-6e" transform="translate(966.011719 0)"/>
    </g>
   </g>
   <g id="text_16">
    <!-- 4.8% -->
    <g transform="translate(155.983915 306.975012) scale(0.07 -0.07)">
     <use xlink:href="#DejaVuSans-34"/>
     <use xlink:href="#DejaVuSans-2e" transform="translate(63.623047 0)"/>
     <use xlink:href="#DejaVuSans-38" transform="translate(95.410156 0)"/>
     <use xlink:href="#DejaVuSans-25" transform="translate(159.033203 0)"/>
    </g>
   </g>
   <g id="text_17">
    <!-- prefill_lin_in_proj_z -->
    <g transform="translate(20.972901 272.676615) scale(0.07 -0.07)">
     <use xlink:href="#DejaVuSans-70"/>
     <use xlink:href="#DejaVuSans-72" transform="translate(63.476562 0)"/>
     <use xlink:href="#DejaVuSans-65" transform="translate(102.339844 0)"/>
     <use xlink:href="#DejaVuSans-66" transform="translate(163.863281 0)"/>
     <use xlink:href="#DejaVuSans-69" transform="translate(199.068359 0)"/>
     <use xlink:href="#DejaVuSans-6c" transform="translate(226.851562 0)"/>
     <use xlink:href="#DejaVuSans-6c" transform="translate(254.634766 0)"/>
     <use xlink:href="#DejaVuSans-5f" transform="translate(282.417969 0)"/>
     <use xlink:href="#DejaVuSans-6c" transform="translate(332.417969 0)"/>
     <use xlink:href="#DejaVuSans-69" transform="translate(360.201172 0)"/>
     <use xlink:href="#DejaVuSans-6e" transform="translate(387.984375 0)"/>
     <use xlink:href="#DejaVuSans-5f" transform="translate(451.363281 0)"/>
     <use xlink:href="#DejaVuSans-69" transform="translate(501.363281 0)"/>
     <use xlink:href="#DejaVuSans-6e" transform="translate(529.146484 0)"/>
     <use xlink:href="#DejaVuSans-5f" transform="translate(592.525391 0)"/>
     <use xlink:href="#DejaVuSans-70" transform="translate(642.525391 0)"/>
     <use xlink:href="#DejaVuSans-72" transform="translate(706.001953 0)"/>
     <use xlink:href="#DejaVuSans-6f" transform="translate(744.865234 0)"/>
     <use xlink:href="#DejaVuSans-6a" transform="translate(806.046875 0)"/>
     <use xlink:href="#DejaVuSans-5f" transform="translate(833.830078 0)"/>
     <use xlink:href="#DejaVuSans-7a" transform="translate(883.830078 0)"/>
    </g>
   </g>
   <g id="text_18">
    <!-- 4.4% -->
    <g transform="translate(148.405473 269.042222) scale(0.07 -0.07)">
     <use xlink:href="#DejaVuSans-34"/>
     <use xlink:href="#DejaVuSans-2e" transform="translate(63.623047 0)"/>
     <use xlink:href="#DejaVuSans-34" transform="translate(95.410156 0)"/>
     <use xlink:href="#DejaVuSans-25" transform="translate(159.033203 0)"/>
    </g>
   </g>
   <g id="text_19">
    <!-- prefill_lin_out_proj -->
    <g transform="translate(27.660735 217.385919) scale(0.07 -0.07)">
     <use xlink:href="#DejaVuSans-70"/>
     <use xlink:href="#DejaVuSans-72" transform="translate(63.476562 0)"/>
     <use xlink:href="#DejaVuSans-65" transform="translate(102.339844 0)"/>
     <use xlink:href="#DejaVuSans-66" transform="translate(163.863281 0)"/>
     <use xlink:href="#DejaVuSans-69" transform="translate(199.068359 0)"/>
     <use xlink:href="#DejaVuSans-6c" transform="translate(226.851562 0)"/>
     <use xlink:href="#DejaVuSans-6c" transform="translate(254.634766 0)"/>
     <use xlink:href="#DejaVuSans-5f" transform="translate(282.417969 0)"/>
     <use xlink:href="#DejaVuSans-6c" transform="translate(332.417969 0)"/>
     <use xlink:href="#DejaVuSans-69" transform="translate(360.201172 0)"/>
     <use xlink:href="#DejaVuSans-6e" transform="translate(387.984375 0)"/>
     <use xlink:href="#DejaVuSans-5f" transform="translate(451.363281 0)"/>
     <use xlink:href="#DejaVuSans-6f" transform="translate(501.363281 0)"/>
     <use xlink:href="#DejaVuSans-75" transform="translate(562.544922 0)"/>
     <use xlink:href="#DejaVuSans-74" transform="translate(625.923828 0)"/>
     <use xlink:href="#DejaVuSans-5f" transform="translate(665.132812 0)"/>
     <use xlink:href="#DejaVuSans-70" transform="translate(715.132812 0)"/>
     <use xlink:href="#DejaVuSans-72" transform="translate(778.609375 0)"/>
     <use xlink:href="#DejaVuSans-6f" transform="translate(817.472656 0)"/>
     <use xlink:href="#DejaVuSans-6a" transform="translate(878.654297 0)"/>
    </g>
   </g>
   <g id="text_20">
    <!-- 4.3% -->
    <g transform="translate(151.414146 232.851948) scale(0.07 -0.07)">
     <use xlink:href="#DejaVuSans-34"/>
     <use xlink:href="#DejaVuSans-2e" transform="translate(63.623047 0)"/>
     <use xlink:href="#DejaVuSans-33" transform="translate(95.410156 0)"/>
     <use xlink:href="#DejaVuSans-25" transform="translate(159.033203 0)"/>
    </g>
   </g>
   <g id="text_21">
    <!-- Other -->
    <g transform="translate(168.597306 84.480967) scale(0.07 -0.07)">
     <defs>
      <path id="DejaVuSans-4f" d="M 2522 4238 
Q 1834 4238 1429 3725 
Q 1025 3213 1025 2328 
Q 1025 1447 1429 934 
Q 1834 422 2522 422 
Q 3209 422 3611 934 
Q 4013 1447 4013 2328 
Q 4013 3213 3611 3725 
Q 3209 4238 2522 4238 
z
M 2522 4750 
Q 3503 4750 4090 4092 
Q 4678 3434 4678 2328 
Q 4678 1225 4090 567 
Q 3503 -91 2522 -91 
Q 1538 -91 948 565 
Q 359 1222 359 2328 
Q 359 3434 948 4092 
Q 1538 4750 2522 4750 
z
" transform="scale(0.015625)"/>
     </defs>
     <use xlink:href="#DejaVuSans-4f"/>
     <use xlink:href="#DejaVuSans-74" transform="translate(78.710938 0)"/>
     <use xlink:href="#DejaVuSans-68" transform="translate(117.919922 0)"/>
     <use xlink:href="#DejaVuSans-65" transform="translate(181.298828 0)"/>
     <use xlink:href="#DejaVuSans-72" transform="translate(242.822266 0)"/>
    </g>
   </g>
   <g id="text_22">
    <!-- 16.7% -->
    <g transform="translate(212.914845 145.7959) scale(0.07 -0.07)">
     <use xlink:href="#DejaVuSans-31"/>
     <use xlink:href="#DejaVuSans-36" transform="translate(63.623047 0)"/>
     <use xlink:href="#DejaVuSans-2e" transform="translate(127.246094 0)"/>
     <use xlink:href="#DejaVuSans-37" transform="translate(159.033203 0)"/>
     <use xlink:href="#DejaVuSans-25" transform="translate(222.65625 0)"/>
    </g>
   </g>
   <g id="text_23">
    <!-- H800 Prefill Kernel Share -->
    <g transform="translate(216.91539 20.88) scale(0.12 -0.12)">
     <defs>
      <path id="DejaVuSans-48" d="M 628 4666 
L 1259 4666 
L 1259 2753 
L 3553 2753 
L 3553 4666 
L 4184 4666 
L 4184 0 
L 3553 0 
L 3553 2222 
L 1259 2222 
L 1259 0 
L 628 0 
L 628 4666 
z
" transform="scale(0.015625)"/>
      <path id="DejaVuSans-30" d="M 2034 4250 
Q 1547 4250 1301 3770 
Q 1056 3291 1056 2328 
Q 1056 1369 1301 889 
Q 1547 409 2034 409 
Q 2525 409 2770 889 
Q 3016 1369 3016 2328 
Q 3016 3291 2770 3770 
Q 2525 4250 2034 4250 
z
M 2034 4750 
Q 2819 4750 3233 4129 
Q 3647 3509 3647 2328 
Q 3647 1150 3233 529 
Q 2819 -91 2034 -91 
Q 1250 -91 836 529 
Q 422 1150 422 2328 
Q 422 3509 836 4129 
Q 1250 4750 2034 4750 
z
" transform="scale(0.015625)"/>
      <path id="DejaVuSans-20" transform="scale(0.015625)"/>
      <path id="DejaVuSans-50" d="M 1259 4147 
L 1259 2394 
L 2053 2394 
Q 2494 2394 2734 2622 
Q 2975 2850 2975 3272 
Q 2975 3691 2734 3919 
Q 2494 4147 2053 4147 
L 1259 4147 
z
M 628 4666 
L 2053 4666 
Q 2838 4666 3239 4311 
Q 3641 3956 3641 3272 
Q 3641 2581 3239 2228 
Q 2838 1875 2053 1875 
L 1259 1875 
L 1259 0 
L 628 0 
L 628 4666 
z
" transform="scale(0.015625)"/>
      <path id="DejaVuSans-4b" d="M 628 4666 
L 1259 4666 
L 1259 2694 
L 3353 4666 
L 4166 4666 
L 1850 2491 
L 4331 0 
L 3500 0 
L 1259 2247 
L 1259 0 
L 628 0 
L 628 4666 
z
" transform="scale(0.015625)"/>
      <path id="DejaVuSans-53" d="M 3425 4513 
L 3425 3897 
Q 3066 4069 2747 4153 
Q 2428 4238 2131 4238 
Q 1616 4238 1336 4038 
Q 1056 3838 1056 3469 
Q 1056 3159 1242 3001 
Q 1428 2844 1947 2747 
L 2328 2669 
Q 3034 2534 3370 2195 
Q 3706 1856 3706 1288 
Q 3706 609 3251 259 
Q 2797 -91 1919 -91 
Q 1588 -91 1214 -16 
Q 841 59 441 206 
L 441 856 
Q 825 641 1194 531 
Q 1563 422 1919 422 
Q 2459 422 2753 634 
Q 3047 847 3047 1241 
Q 3047 1584 2836 1778 
Q 2625 1972 2144 2069 
L 1759 2144 
Q 1053 2284 737 2584 
Q 422 2884 422 3419 
Q 422 4038 858 4394 
Q 1294 4750 2059 4750 
Q 2388 4750 2728 4690 
Q 3069 4631 3425 4513 
z
" transform="scale(0.015625)"/>
     </defs>
     <use xlink:href="#DejaVuSans-48"/>
     <use xlink:href="#DejaVuSans-38" transform="translate(75.195312 0)"/>
     <use xlink:href="#DejaVuSans-30" transform="translate(138.818359 0)"/>
     <use xlink:href="#DejaVuSans-30" transform="translate(202.441406 0)"/>
     <use xlink:href="#DejaVuSans-20" transform="translate(266.064453 0)"/>
     <use xlink:href="#DejaVuSans-50" transform="translate(297.851562 0)"/>
     <use xlink:href="#DejaVuSans-72" transform="translate(356.404297 0)"/>
     <use xlink:href="#DejaVuSans-65" transform="translate(395.267578 0)"/>
     <use xlink:href="#DejaVuSans-66" transform="translate(456.791016 0)"/>
     <use xlink:href="#DejaVuSans-69" transform="translate(491.996094 0)"/>
     <use xlink:href="#DejaVuSans-6c" transform="translate(519.779297 0)"/>
     <use xlink:href="#DejaVuSans-6c" transform="translate(547.5625 0)"/>
     <use xlink:href="#DejaVuSans-20" transform="translate(575.345703 0)"/>
     <use xlink:href="#DejaVuSans-4b" transform="translate(607.132812 0)"/>
     <use xlink:href="#DejaVuSans-65" transform="translate(667.708984 0)"/>
     <use xlink:href="#DejaVuSans-72" transform="translate(729.232422 0)"/>
     <use xlink:href="#DejaVuSans-6e" transform="translate(768.595703 0)"/>
     <use xlink:href="#DejaVuSans-65" transform="translate(831.974609 0)"/>
     <use xlink:href="#DejaVuSans-6c" transform="translate(893.498047 0)"/>
     <use xlink:href="#DejaVuSans-20" transform="translate(921.28125 0)"/>
     <use xlink:href="#DejaVuSans-53" transform="translate(953.068359 0)"/>
     <use xlink:href="#DejaVuSans-68" transform="translate(1016.544922 0)"/>
     <use xlink:href="#DejaVuSans-61" transform="translate(1079.923828 0)"/>
     <use xlink:href="#DejaVuSans-72" transform="translate(1141.203125 0)"/>
     <use xlink:href="#DejaVuSans-65" transform="translate(1180.066406 0)"/>
    </g>
   </g>
  </g>
  <g id="axes_2">
   <g id="patch_14">
    <path d="M 1000.676513 164.257532 
C 984.118628 136.588438 960.665533 113.679955 932.61511 97.776616 
C 904.564687 81.873277 872.86401 73.512 840.618974 73.512 
L 840.618983 260.04 
z
" style="fill: #1f77b4"/>
   </g>
   <g id="patch_15">
    <path d="M 1010.032989 338.088644 
C 1022.725235 310.538601 1028.507684 280.303899 1026.877373 250.014626 
C 1025.24705 219.725355 1016.252629 190.28603 1000.676513 164.257532 
L 840.618983 260.04 
z
" style="fill: #ff7f0e"/>
   </g>
   <g id="patch_16">
    <path d="M 942.916261 416.014235 
C 957.460966 406.474936 970.60013 394.947894 981.951409 381.768549 
C 993.302687 368.589204 1002.7549 353.886624 1010.032989 338.088644 
L 840.618983 260.04 
z
" style="fill: #2ca02c"/>
   </g>
   <g id="patch_17">
    <path d="M 850.451342 446.308674 
C 866.858858 445.442587 883.080256 442.412405 898.693962 437.296854 
C 914.307668 432.181303 929.177239 425.025111 942.916261 416.014235 
L 840.618983 260.04 
z
" style="fill: #d62728"/>
   </g>
   <g id="patch_18">
    <path d="M 758.157941 427.350705 
C 772.417004 434.378452 787.516166 439.554617 803.087905 442.753203 
C 818.659646 445.951788 834.576586 447.146644 850.451342 446.308674 
L 840.618983 260.04 
z
" style="fill: #9467bd"/>
   </g>
   <g id="patch_19">
    <path d="M 705.215851 388.331422 
C 712.799417 396.335379 721.077743 403.651147 729.95358 410.192807 
C 738.829416 416.734466 748.267865 422.476268 758.157941 427.350705 
L 840.618983 260.04 
z
" style="fill: #8c564b"/>
   </g>
   <g id="patch_20">
    <path d="M 676.481237 348.648665 
C 680.372903 355.857545 684.735258 362.802219 689.539974 369.437569 
C 694.34469 376.07292 699.581326 382.384549 705.215851 388.331422 
L 840.618983 260.04 
z
" style="fill: #e377c2"/>
   </g>
   <g id="patch_21">
    <path d="M 659.289585 303.770366 
C 661.173307 311.581285 663.559761 319.262317 666.434014 326.765483 
C 669.308267 334.26865 672.664338 341.578292 676.481237 348.648665 
L 840.618983 260.04 
z
" style="fill: #7f7f7f"/>
   </g>
   <g id="patch_22">
    <path d="M 654.177136 265.708502 
C 654.372033 272.118932 654.897411 278.515026 655.751191 284.871336 
C 656.60497 291.227645 657.786006 297.535717 659.289585 303.770366 
L 840.618983 260.04 
z
" style="fill: #bcbd22"/>
   </g>
   <g id="patch_23">
    <path d="M 656.837302 228.149751 
C 655.762342 234.344695 655.001286 240.590048 654.55708 246.861853 
C 654.112874 253.133658 653.986052 259.42389 654.177136 265.708502 
L 840.618983 260.04 
z
" style="fill: #17becf"/>
   </g>
   <g id="patch_24">
    <path d="M 665.851301 194.856007 
C 663.839122 200.250958 662.077818 205.736191 660.573072 211.294075 
C 659.068327 216.851961 657.821728 222.476544 656.837302 228.149751 
L 840.618983 260.04 
z
" style="fill: #1f77b4"/>
   </g>
   <g id="patch_25">
    <path d="M 840.618985 73.512 
C 802.59719 73.512 765.469279 85.137525 734.237442 106.822301 
C 703.005606 128.507078 679.138379 159.231436 665.851301 194.856007 
L 840.618983 260.04 
z
" style="fill: #ff7f0e"/>
   </g>
   <g id="matplotlib.axis_3"/>
   <g id="matplotlib.axis_4"/>
   <g id="text_24">
    <!-- gate_up_prefill -->
    <g transform="translate(941.814724 83.384492) scale(0.07 -0.07)">
     <use xlink:href="#DejaVuSans-67"/>
     <use xlink:href="#DejaVuSans-61" transform="translate(63.476562 0)"/>
     <use xlink:href="#DejaVuSans-74" transform="translate(124.755859 0)"/>
     <use xlink:href="#DejaVuSans-65" transform="translate(163.964844 0)"/>
     <use xlink:href="#DejaVuSans-5f" transform="translate(225.488281 0)"/>
     <use xlink:href="#DejaVuSans-75" transform="translate(275.488281 0)"/>
     <use xlink:href="#DejaVuSans-70" transform="translate(338.867188 0)"/>
     <use xlink:href="#DejaVuSans-5f" transform="translate(402.34375 0)"/>
     <use xlink:href="#DejaVuSans-70" transform="translate(452.34375 0)"/>
     <use xlink:href="#DejaVuSans-72" transform="translate(515.820312 0)"/>
     <use xlink:href="#DejaVuSans-65" transform="translate(554.683594 0)"/>
     <use xlink:href="#DejaVuSans-66" transform="translate(616.207031 0)"/>
     <use xlink:href="#DejaVuSans-69" transform="translate(651.412109 0)"/>
     <use xlink:href="#DejaVuSans-6c" transform="translate(679.195312 0)"/>
     <use xlink:href="#DejaVuSans-6c" transform="translate(706.978516 0)"/>
    </g>
   </g>
   <g id="text_25">
    <!-- 16.4% -->
    <g transform="translate(895.73768 145.141923) scale(0.07 -0.07)">
     <use xlink:href="#DejaVuSans-31"/>
     <use xlink:href="#DejaVuSans-36" transform="translate(63.623047 0)"/>
     <use xlink:href="#DejaVuSans-2e" transform="translate(127.246094 0)"/>
     <use xlink:href="#DejaVuSans-34" transform="translate(159.033203 0)"/>
     <use xlink:href="#DejaVuSans-25" transform="translate(222.65625 0)"/>
    </g>
   </g>
   <g id="text_26">
    <!-- linear_prefill -->
    <g transform="translate(1045.503208 246.829735) scale(0.07 -0.07)">
     <use xlink:href="#DejaVuSans-6c"/>
     <use xlink:href="#DejaVuSans-69" transform="translate(27.783203 0)"/>
     <use xlink:href="#DejaVuSans-6e" transform="translate(55.566406 0)"/>
     <use xlink:href="#DejaVuSans-65" transform="translate(118.945312 0)"/>
     <use xlink:href="#DejaVuSans-61" transform="translate(180.46875 0)"/>
     <use xlink:href="#DejaVuSans-72" transform="translate(241.748047 0)"/>
     <use xlink:href="#DejaVuSans-5f" transform="translate(282.861328 0)"/>
     <use xlink:href="#DejaVuSans-70" transform="translate(332.861328 0)"/>
     <use xlink:href="#DejaVuSans-72" transform="translate(396.337891 0)"/>
     <use xlink:href="#DejaVuSans-65" transform="translate(435.201172 0)"/>
     <use xlink:href="#DejaVuSans-66" transform="translate(496.724609 0)"/>
     <use xlink:href="#DejaVuSans-69" transform="translate(531.929688 0)"/>
     <use xlink:href="#DejaVuSans-6c" transform="translate(559.712891 0)"/>
     <use xlink:href="#DejaVuSans-6c" transform="translate(587.496094 0)"/>
    </g>
    <!-- flashinfer_gdn -->
    <g transform="translate(1045.503208 254.862891) scale(0.07 -0.07)">
     <use xlink:href="#DejaVuSans-66"/>
     <use xlink:href="#DejaVuSans-6c" transform="translate(35.205078 0)"/>
     <use xlink:href="#DejaVuSans-61" transform="translate(62.988281 0)"/>
     <use xlink:href="#DejaVuSans-73" transform="translate(124.267578 0)"/>
     <use xlink:href="#DejaVuSans-68" transform="translate(176.367188 0)"/>
     <use xlink:href="#DejaVuSans-69" transform="translate(239.746094 0)"/>
     <use xlink:href="#DejaVuSans-6e" transform="translate(267.529297 0)"/>
     <use xlink:href="#DejaVuSans-66" transform="translate(330.908203 0)"/>
     <use xlink:href="#DejaVuSans-65" transform="translate(366.113281 0)"/>
     <use xlink:href="#DejaVuSans-72" transform="translate(427.636719 0)"/>
     <use xlink:href="#DejaVuSans-5f" transform="translate(468.75 0)"/>
     <use xlink:href="#DejaVuSans-67" transform="translate(518.75 0)"/>
     <use xlink:href="#DejaVuSans-64" transform="translate(582.226562 0)"/>
     <use xlink:href="#DejaVuSans-6e" transform="translate(645.703125 0)"/>
    </g>
   </g>
   <g id="text_27">
    <!-- 15.5% -->
    <g transform="translate(963.606506 254.753297) scale(0.07 -0.07)">
     <use xlink:href="#DejaVuSans-31"/>
     <use xlink:href="#DejaVuSans-35" transform="translate(63.623047 0)"/>
     <use xlink:href="#DejaVuSans-2e" transform="translate(127.246094 0)"/>
     <use xlink:href="#DejaVuSans-35" transform="translate(159.033203 0)"/>
     <use xlink:href="#DejaVuSans-25" transform="translate(222.65625 0)"/>
    </g>
   </g>
   <g id="text_28">
    <!-- gated_prefill -->
    <g transform="translate(996.08465 395.775626) scale(0.07 -0.07)">
     <use xlink:href="#DejaVuSans-67"/>
     <use xlink:href="#DejaVuSans-61" transform="translate(63.476562 0)"/>
     <use xlink:href="#DejaVuSans-74" transform="translate(124.755859 0)"/>
     <use xlink:href="#DejaVuSans-65" transform="translate(163.964844 0)"/>
     <use xlink:href="#DejaVuSans-64" transform="translate(225.488281 0)"/>
     <use xlink:href="#DejaVuSans-5f" transform="translate(288.964844 0)"/>
     <use xlink:href="#DejaVuSans-70" transform="translate(338.964844 0)"/>
     <use xlink:href="#DejaVuSans-72" transform="translate(402.441406 0)"/>
     <use xlink:href="#DejaVuSans-65" transform="translate(441.304688 0)"/>
     <use xlink:href="#DejaVuSans-66" transform="translate(502.828125 0)"/>
     <use xlink:href="#DejaVuSans-69" transform="translate(538.033203 0)"/>
     <use xlink:href="#DejaVuSans-6c" transform="translate(565.816406 0)"/>
     <use xlink:href="#DejaVuSans-6c" transform="translate(593.599609 0)"/>
    </g>
   </g>
   <g id="text_29">
    <!-- 8.9% -->
    <g transform="translate(933.486688 349.61612) scale(0.07 -0.07)">
     <use xlink:href="#DejaVuSans-38"/>
     <use xlink:href="#DejaVuSans-2e" transform="translate(63.623047 0)"/>
     <use xlink:href="#DejaVuSans-39" transform="translate(95.410156 0)"/>
     <use xlink:href="#DejaVuSans-25" transform="translate(159.033203 0)"/>
    </g>
   </g>
   <g id="text_30">
    <!-- down_prefill -->
    <g transform="translate(904.501459 456.856756) scale(0.07 -0.07)">
     <use xlink:href="#DejaVuSans-64"/>
     <use xlink:href="#DejaVuSans-6f" transform="translate(63.476562 0)"/>
     <use xlink:href="#DejaVuSans-77" transform="translate(124.658203 0)"/>
     <use xlink:href="#DejaVuSans-6e" transform="translate(206.445312 0)"/>
     <use xlink:href="#DejaVuSans-5f" transform="translate(269.824219 0)"/>
     <use xlink:href="#DejaVuSans-70" transform="translate(319.824219 0)"/>
     <use xlink:href="#DejaVuSans-72" transform="translate(383.300781 0)"/>
     <use xlink:href="#DejaVuSans-65" transform="translate(422.164062 0)"/>
     <use xlink:href="#DejaVuSans-66" transform="translate(483.6875 0)"/>
     <use xlink:href="#DejaVuSans-69" transform="translate(518.892578 0)"/>
     <use xlink:href="#DejaVuSans-6c" transform="translate(546.675781 0)"/>
     <use xlink:href="#DejaVuSans-6c" transform="translate(574.458984 0)"/>
    </g>
   </g>
   <g id="text_31">
    <!-- 8.4% -->
    <g transform="translate(873.541327 389.596496) scale(0.07 -0.07)">
     <use xlink:href="#DejaVuSans-38"/>
     <use xlink:href="#DejaVuSans-2e" transform="translate(63.623047 0)"/>
     <use xlink:href="#DejaVuSans-34" transform="translate(95.410156 0)"/>
     <use xlink:href="#DejaVuSans-25" transform="translate(159.033203 0)"/>
    </g>
   </g>
   <g id="text_32">
    <!-- lin_prefill_fused_rms -->
    <g transform="translate(728.221359 458.842159) scale(0.07 -0.07)">
     <use xlink:href="#DejaVuSans-6c"/>
     <use xlink:href="#DejaVuSans-69" transform="translate(27.783203 0)"/>
     <use xlink:href="#DejaVuSans-6e" transform="translate(55.566406 0)"/>
     <use xlink:href="#DejaVuSans-5f" transform="translate(118.945312 0)"/>
     <use xlink:href="#DejaVuSans-70" transform="translate(168.945312 0)"/>
     <use xlink:href="#DejaVuSans-72" transform="translate(232.421875 0)"/>
     <use xlink:href="#DejaVuSans-65" transform="translate(271.285156 0)"/>
     <use xlink:href="#DejaVuSans-66" transform="translate(332.808594 0)"/>
     <use xlink:href="#DejaVuSans-69" transform="translate(368.013672 0)"/>
     <use xlink:href="#DejaVuSans-6c" transform="translate(395.796875 0)"/>
     <use xlink:href="#DejaVuSans-6c" transform="translate(423.580078 0)"/>
     <use xlink:href="#DejaVuSans-5f" transform="translate(451.363281 0)"/>
     <use xlink:href="#DejaVuSans-66" transform="translate(501.363281 0)"/>
     <use xlink:href="#DejaVuSans-75" transform="translate(536.568359 0)"/>
     <use xlink:href="#DejaVuSans-73" transform="translate(599.947266 0)"/>
     <use xlink:href="#DejaVuSans-65" transform="translate(652.046875 0)"/>
     <use xlink:href="#DejaVuSans-64" transform="translate(713.570312 0)"/>
     <use xlink:href="#DejaVuSans-5f" transform="translate(777.046875 0)"/>
     <use xlink:href="#DejaVuSans-72" transform="translate(827.046875 0)"/>
     <use xlink:href="#DejaVuSans-6d" transform="translate(866.410156 0)"/>
     <use xlink:href="#DejaVuSans-73" transform="translate(963.822266 0)"/>
    </g>
    <!-- norm_gate -->
    <g transform="translate(761.756828 466.875315) scale(0.07 -0.07)">
     <use xlink:href="#DejaVuSans-6e"/>
     <use xlink:href="#DejaVuSans-6f" transform="translate(63.378906 0)"/>
     <use xlink:href="#DejaVuSans-72" transform="translate(124.560547 0)"/>
     <use xlink:href="#DejaVuSans-6d" transform="translate(163.923828 0)"/>
     <use xlink:href="#DejaVuSans-5f" transform="translate(261.335938 0)"/>
     <use xlink:href="#DejaVuSans-67" transform="translate(311.335938 0)"/>
     <use xlink:href="#DejaVuSans-61" transform="translate(374.8125 0)"/>
     <use xlink:href="#DejaVuSans-74" transform="translate(436.091797 0)"/>
     <use xlink:href="#DejaVuSans-65" transform="translate(475.300781 0)"/>
    </g>
   </g>
   <g id="text_33">
    <!-- 8.1% -->
    <g transform="translate(804.704966 393.525065) scale(0.07 -0.07)">
     <use xlink:href="#DejaVuSans-38"/>
     <use xlink:href="#DejaVuSans-2e" transform="translate(63.623047 0)"/>
     <use xlink:href="#DejaVuSans-31" transform="translate(95.410156 0)"/>
     <use xlink:href="#DejaVuSans-25" transform="translate(159.033203 0)"/>
    </g>
   </g>
   <g id="text_34">
    <!-- prefill_lin_in_proj_qkv -->
    <g transform="translate(644.378609 427.042304) scale(0.07 -0.07)">
     <use xlink:href="#DejaVuSans-70"/>
     <use xlink:href="#DejaVuSans-72" transform="translate(63.476562 0)"/>
     <use xlink:href="#DejaVuSans-65" transform="translate(102.339844 0)"/>
     <use xlink:href="#DejaVuSans-66" transform="translate(163.863281 0)"/>
     <use xlink:href="#DejaVuSans-69" transform="translate(199.068359 0)"/>
     <use xlink:href="#DejaVuSans-6c" transform="translate(226.851562 0)"/>
     <use xlink:href="#DejaVuSans-6c" transform="translate(254.634766 0)"/>
     <use xlink:href="#DejaVuSans-5f" transform="translate(282.417969 0)"/>
     <use xlink:href="#DejaVuSans-6c" transform="translate(332.417969 0)"/>
     <use xlink:href="#DejaVuSans-69" transform="translate(360.201172 0)"/>
     <use xlink:href="#DejaVuSans-6e" transform="translate(387.984375 0)"/>
     <use xlink:href="#DejaVuSans-5f" transform="translate(451.363281 0)"/>
     <use xlink:href="#DejaVuSans-69" transform="translate(501.363281 0)"/>
     <use xlink:href="#DejaVuSans-6e" transform="translate(529.146484 0)"/>
     <use xlink:href="#DejaVuSans-5f" transform="translate(592.525391 0)"/>
     <use xlink:href="#DejaVuSans-70" transform="translate(642.525391 0)"/>
     <use xlink:href="#DejaVuSans-72" transform="translate(706.001953 0)"/>
     <use xlink:href="#DejaVuSans-6f" transform="translate(744.865234 0)"/>
     <use xlink:href="#DejaVuSans-6a" transform="translate(806.046875 0)"/>
     <use xlink:href="#DejaVuSans-5f" transform="translate(833.830078 0)"/>
     <use xlink:href="#DejaVuSans-71" transform="translate(883.830078 0)"/>
     <use xlink:href="#DejaVuSans-6b" transform="translate(947.306641 0)"/>
     <use xlink:href="#DejaVuSans-76" transform="translate(1005.216797 0)"/>
    </g>
   </g>
   <g id="text_35">
    <!-- 5.6% -->
    <g transform="translate(752.048256 370.081582) scale(0.07 -0.07)">
     <use xlink:href="#DejaVuSans-35"/>
     <use xlink:href="#DejaVuSans-2e" transform="translate(63.623047 0)"/>
     <use xlink:href="#DejaVuSans-36" transform="translate(95.410156 0)"/>
     <use xlink:href="#DejaVuSans-25" transform="translate(159.033203 0)"/>
    </g>
   </g>
   <g id="text_36">
    <!-- prefill_lin_out_proj -->
    <g transform="translate(610.981472 382.211577) scale(0.07 -0.07)">
     <use xlink:href="#DejaVuSans-70"/>
     <use xlink:href="#DejaVuSans-72" transform="translate(63.476562 0)"/>
     <use xlink:href="#DejaVuSans-65" transform="translate(102.339844 0)"/>
     <use xlink:href="#DejaVuSans-66" transform="translate(163.863281 0)"/>
     <use xlink:href="#DejaVuSans-69" transform="translate(199.068359 0)"/>
     <use xlink:href="#DejaVuSans-6c" transform="translate(226.851562 0)"/>
     <use xlink:href="#DejaVuSans-6c" transform="translate(254.634766 0)"/>
     <use xlink:href="#DejaVuSans-5f" transform="translate(282.417969 0)"/>
     <use xlink:href="#DejaVuSans-6c" transform="translate(332.417969 0)"/>
     <use xlink:href="#DejaVuSans-69" transform="translate(360.201172 0)"/>
     <use xlink:href="#DejaVuSans-6e" transform="translate(387.984375 0)"/>
     <use xlink:href="#DejaVuSans-5f" transform="translate(451.363281 0)"/>
     <use xlink:href="#DejaVuSans-6f" transform="translate(501.363281 0)"/>
     <use xlink:href="#DejaVuSans-75" transform="translate(562.544922 0)"/>
     <use xlink:href="#DejaVuSans-74" transform="translate(625.923828 0)"/>
     <use xlink:href="#DejaVuSans-5f" transform="translate(665.132812 0)"/>
     <use xlink:href="#DejaVuSans-70" transform="translate(715.132812 0)"/>
     <use xlink:href="#DejaVuSans-72" transform="translate(778.609375 0)"/>
     <use xlink:href="#DejaVuSans-6f" transform="translate(817.472656 0)"/>
     <use xlink:href="#DejaVuSans-6a" transform="translate(878.654297 0)"/>
    </g>
   </g>
   <g id="text_37">
    <!-- 4.2% -->
    <g transform="translate(722.950471 340.737833) scale(0.07 -0.07)">
     <use xlink:href="#DejaVuSans-34"/>
     <use xlink:href="#DejaVuSans-2e" transform="translate(63.623047 0)"/>
     <use xlink:href="#DejaVuSans-32" transform="translate(95.410156 0)"/>
     <use xlink:href="#DejaVuSans-25" transform="translate(159.033203 0)"/>
    </g>
   </g>
   <g id="text_38">
    <!-- prefill_lin_in_proj_z -->
    <g transform="translate(583.473639 335.272252) scale(0.07 -0.07)">
     <use xlink:href="#DejaVuSans-70"/>
     <use xlink:href="#DejaVuSans-72" transform="translate(63.476562 0)"/>
     <use xlink:href="#DejaVuSans-65" transform="translate(102.339844 0)"/>
     <use xlink:href="#DejaVuSans-66" transform="translate(163.863281 0)"/>
     <use xlink:href="#DejaVuSans-69" transform="translate(199.068359 0)"/>
     <use xlink:href="#DejaVuSans-6c" transform="translate(226.851562 0)"/>
     <use xlink:href="#DejaVuSans-6c" transform="translate(254.634766 0)"/>
     <use xlink:href="#DejaVuSans-5f" transform="translate(282.417969 0)"/>
     <use xlink:href="#DejaVuSans-6c" transform="translate(332.417969 0)"/>
     <use xlink:href="#DejaVuSans-69" transform="translate(360.201172 0)"/>
     <use xlink:href="#DejaVuSans-6e" transform="translate(387.984375 0)"/>
     <use xlink:href="#DejaVuSans-5f" transform="translate(451.363281 0)"/>
     <use xlink:href="#DejaVuSans-69" transform="translate(501.363281 0)"/>
     <use xlink:href="#DejaVuSans-6e" transform="translate(529.146484 0)"/>
     <use xlink:href="#DejaVuSans-5f" transform="translate(592.525391 0)"/>
     <use xlink:href="#DejaVuSans-70" transform="translate(642.525391 0)"/>
     <use xlink:href="#DejaVuSans-72" transform="translate(706.001953 0)"/>
     <use xlink:href="#DejaVuSans-6f" transform="translate(744.865234 0)"/>
     <use xlink:href="#DejaVuSans-6a" transform="translate(806.046875 0)"/>
     <use xlink:href="#DejaVuSans-5f" transform="translate(833.830078 0)"/>
     <use xlink:href="#DejaVuSans-7a" transform="translate(883.830078 0)"/>
    </g>
   </g>
   <g id="text_39">
    <!-- 4.1% -->
    <g transform="translate(706.314162 310.013912) scale(0.07 -0.07)">
     <use xlink:href="#DejaVuSans-34"/>
     <use xlink:href="#DejaVuSans-2e" transform="translate(63.623047 0)"/>
     <use xlink:href="#DejaVuSans-31" transform="translate(95.410156 0)"/>
     <use xlink:href="#DejaVuSans-25" transform="translate(159.033203 0)"/>
    </g>
   </g>
   <g id="text_40">
    <!-- flash_prefill_full_attn -->
    <g transform="translate(565.209258 289.188688) scale(0.07 -0.07)">
     <use xlink:href="#DejaVuSans-66"/>
     <use xlink:href="#DejaVuSans-6c" transform="translate(35.205078 0)"/>
     <use xlink:href="#DejaVuSans-61" transform="translate(62.988281 0)"/>
     <use xlink:href="#DejaVuSans-73" transform="translate(124.267578 0)"/>
     <use xlink:href="#DejaVuSans-68" transform="translate(176.367188 0)"/>
     <use xlink:href="#DejaVuSans-5f" transform="translate(239.746094 0)"/>
     <use xlink:href="#DejaVuSans-70" transform="translate(289.746094 0)"/>
     <use xlink:href="#DejaVuSans-72" transform="translate(353.222656 0)"/>
     <use xlink:href="#DejaVuSans-65" transform="translate(392.085938 0)"/>
     <use xlink:href="#DejaVuSans-66" transform="translate(453.609375 0)"/>
     <use xlink:href="#DejaVuSans-69" transform="translate(488.814453 0)"/>
     <use xlink:href="#DejaVuSans-6c" transform="translate(516.597656 0)"/>
     <use xlink:href="#DejaVuSans-6c" transform="translate(544.380859 0)"/>
     <use xlink:href="#DejaVuSans-5f" transform="translate(572.164062 0)"/>
     <use xlink:href="#DejaVuSans-66" transform="translate(622.164062 0)"/>
     <use xlink:href="#DejaVuSans-75" transform="translate(657.369141 0)"/>
     <use xlink:href="#DejaVuSans-6c" transform="translate(720.748047 0)"/>
     <use xlink:href="#DejaVuSans-6c" transform="translate(748.53125 0)"/>
     <use xlink:href="#DejaVuSans-5f" transform="translate(776.314453 0)"/>
     <use xlink:href="#DejaVuSans-61" transform="translate(826.314453 0)"/>
     <use xlink:href="#DejaVuSans-74" transform="translate(887.59375 0)"/>
     <use xlink:href="#DejaVuSans-74" transform="translate(926.802734 0)"/>
     <use xlink:href="#DejaVuSans-6e" transform="translate(966.011719 0)"/>
    </g>
   </g>
   <g id="text_41">
    <!-- 3.3% -->
    <g transform="translate(698.622534 279.850124) scale(0.07 -0.07)">
     <use xlink:href="#DejaVuSans-33"/>
     <use xlink:href="#DejaVuSans-2e" transform="translate(63.623047 0)"/>
     <use xlink:href="#DejaVuSans-33" transform="translate(95.410156 0)"/>
     <use xlink:href="#DejaVuSans-25" transform="translate(159.033203 0)"/>
    </g>
   </g>
   <g id="text_42">
    <!-- expand_prefill -->
    <g transform="translate(586.739801 247.378209) scale(0.07 -0.07)">
     <use xlink:href="#DejaVuSans-65"/>
     <use xlink:href="#DejaVuSans-78" transform="translate(59.773438 0)"/>
     <use xlink:href="#DejaVuSans-70" transform="translate(118.953125 0)"/>
     <use xlink:href="#DejaVuSans-61" transform="translate(182.429688 0)"/>
     <use xlink:href="#DejaVuSans-6e" transform="translate(243.708984 0)"/>
     <use xlink:href="#DejaVuSans-64" transform="translate(307.087891 0)"/>
     <use xlink:href="#DejaVuSans-5f" transform="translate(370.564453 0)"/>
     <use xlink:href="#DejaVuSans-70" transform="translate(420.564453 0)"/>
     <use xlink:href="#DejaVuSans-72" transform="translate(484.041016 0)"/>
     <use xlink:href="#DejaVuSans-65" transform="translate(522.904297 0)"/>
     <use xlink:href="#DejaVuSans-66" transform="translate(584.427734 0)"/>
     <use xlink:href="#DejaVuSans-69" transform="translate(619.632812 0)"/>
     <use xlink:href="#DejaVuSans-6c" transform="translate(647.416016 0)"/>
     <use xlink:href="#DejaVuSans-6c" transform="translate(675.199219 0)"/>
    </g>
   </g>
   <g id="text_43">
    <!-- 3.2% -->
    <g transform="translate(697.762775 252.483265) scale(0.07 -0.07)">
     <use xlink:href="#DejaVuSans-33"/>
     <use xlink:href="#DejaVuSans-2e" transform="translate(63.623047 0)"/>
     <use xlink:href="#DejaVuSans-32" transform="translate(95.410156 0)"/>
     <use xlink:href="#DejaVuSans-25" transform="translate(159.033203 0)"/>
    </g>
   </g>
   <g id="text_44">
    <!-- Other -->
    <g transform="translate(703.723749 93.432036) scale(0.07 -0.07)">
     <use xlink:href="#DejaVuSans-4f"/>
     <use xlink:href="#DejaVuSans-74" transform="translate(78.710938 0)"/>
     <use xlink:href="#DejaVuSans-68" transform="translate(117.919922 0)"/>
     <use xlink:href="#DejaVuSans-65" transform="translate(181.298828 0)"/>
     <use xlink:href="#DejaVuSans-72" transform="translate(242.822266 0)"/>
    </g>
   </g>
   <g id="text_45">
    <!-- 19.3% -->
    <g transform="translate(752.905814 151.654782) scale(0.07 -0.07)">
     <use xlink:href="#DejaVuSans-31"/>
     <use xlink:href="#DejaVuSans-39" transform="translate(63.623047 0)"/>
     <use xlink:href="#DejaVuSans-2e" transform="translate(127.246094 0)"/>
     <use xlink:href="#DejaVuSans-33" transform="translate(159.033203 0)"/>
     <use xlink:href="#DejaVuSans-25" transform="translate(222.65625 0)"/>
    </g>
   </g>
   <g id="text_46">
    <!-- PPU Prefill Kernel Share -->
    <g transform="translate(770.46117 20.88) scale(0.12 -0.12)">
     <defs>
      <path id="DejaVuSans-55" d="M 556 4666 
L 1191 4666 
L 1191 1831 
Q 1191 1081 1462 751 
Q 1734 422 2344 422 
Q 2950 422 3222 751 
Q 3494 1081 3494 1831 
L 3494 4666 
L 4128 4666 
L 4128 1753 
Q 4128 841 3676 375 
Q 3225 -91 2344 -91 
Q 1459 -91 1007 375 
Q 556 841 556 1753 
L 556 4666 
z
" transform="scale(0.015625)"/>
     </defs>
     <use xlink:href="#DejaVuSans-50"/>
     <use xlink:href="#DejaVuSans-50" transform="translate(60.302734 0)"/>
     <use xlink:href="#DejaVuSans-55" transform="translate(120.605469 0)"/>
     <use xlink:href="#DejaVuSans-20" transform="translate(193.798828 0)"/>
     <use xlink:href="#DejaVuSans-50" transform="translate(225.585938 0)"/>
     <use xlink:href="#DejaVuSans-72" transform="translate(284.138672 0)"/>
     <use xlink:href="#DejaVuSans-65" transform="translate(323.001953 0)"/>
     <use xlink:href="#DejaVuSans-66" transform="translate(384.525391 0)"/>
     <use xlink:href="#DejaVuSans-69" transform="translate(419.730469 0)"/>
     <use xlink:href="#DejaVuSans-6c" transform="translate(447.513672 0)"/>
     <use xlink:href="#DejaVuSans-6c" transform="translate(475.296875 0)"/>
     <use xlink:href="#DejaVuSans-20" transform="translate(503.080078 0)"/>
     <use xlink:href="#DejaVuSans-4b" transform="translate(534.867188 0)"/>
     <use xlink:href="#DejaVuSans-65" transform="translate(595.443359 0)"/>
     <use xlink:href="#DejaVuSans-72" transform="translate(656.966797 0)"/>
     <use xlink:href="#DejaVuSans-6e" transform="translate(696.330078 0)"/>
     <use xlink:href="#DejaVuSans-65" transform="translate(759.708984 0)"/>
     <use xlink:href="#DejaVuSans-6c" transform="translate(821.232422 0)"/>
     <use xlink:href="#DejaVuSans-20" transform="translate(849.015625 0)"/>
     <use xlink:href="#DejaVuSans-53" transform="translate(880.802734 0)"/>
     <use xlink:href="#DejaVuSans-68" transform="translate(944.279297 0)"/>
     <use xlink:href="#DejaVuSans-61" transform="translate(1007.658203 0)"/>
     <use xlink:href="#DejaVuSans-72" transform="translate(1068.9375 0)"/>
     <use xlink:href="#DejaVuSans-65" transform="translate(1107.800781 0)"/>
    </g>
   </g>
  </g>
 </g>
</svg>
